{
  "accessors": [
    {
      "bufferView": 1,
      "componentType": 5126,
      "count": 65532,
      "max": [
        4.0996098518371582,
        16.708919525146484,
        25.30143928527832
      ],
      "min": [
        -4.0931401252746582,
        -8.2154102325439453,
        0.87155002355575562
      ],
      "type": "VEC3"
    },
    {
      "bufferView": 1,
      "byteOffset": 786384,
      "componentType": 5126,
      "count": 65532,
      "max": [
        1,
        0.99999958276748657,
        0.9998244047164917
      ],
      "min": [
        -1,
        -0.9999956488609314,
        -0.99999994039535522
      ],
      "type": "VEC3"
    },
    {
      "bufferView": 0,
      "componentType": 5125,
      "count": 379515,
      "max": [
        65531
      ],
      "min": [
        0
      ],
      "type": "SCALAR"
    },
    {
      "bufferView": 1,
      "byteOffset": 1572768,
      "componentType": 5126,
      "count": 65532,
      "max": [
        4.0958199501037598,
        15.610799789428711,
        25.707569122314453
      ],
      "min": [
        -4.0374999046325684,
        -9.5832004547119141,
        9.517970085144043
      ],
      "type": "VEC3"
    },
    {
      "bufferView": 1,
      "byteOffset": 2359152,
      "componentType": 5126,
      "count": 65532,
      "max": [
        0.99996548891067505,
        0.99999958276748657,
        1
      ],
      "min": [
        -0.999950110912323,
        -0.999980628490448,
        -0.99999314546585083
      ],
      "type": "VEC3"
    },
    {
      "bufferView": 0,
      "byteOffset": 1518060,
      "componentType": 5125,
      "count": 371493,
      "max": [
        65531
      ],
      "min": [
        0
      ],
      "type": "SCALAR"
    },
    {
      "bufferView": 1,
      "byteOffset": 3145536,
      "componentType": 5126,
      "count": 28002,
      "max": [
        3.8868799209594727,
        16.708919525146484,
        25.705429077148438
      ],
      "min": [
        -4.015620231628418,
        -9.5832004547119141,
        0.95402002334594727
      ],
      "type": "VEC3"
    },
    {
      "bufferView": 1,
      "byteOffset": 3481560,
      "componentType": 5126,
      "count": 28002,
      "max": [
        0.99999111890792847,
        0.99998456239700317,
        0.99936789274215698
      ],
      "min": [
        -1,
        -0.999980628490448,
        -0.99998480081558228
      ],
      "type": "VEC3"
    },
    {
      "bufferView": 0,
      "byteOffset": 3004032,
      "componentType": 5125,
      "count": 137328,
      "max": [
        28001
      ],
      "min": [
        0
      ],
      "type": "SCALAR"
    },
    {
      "bufferView": 1,
      "byteOffset": 3817584,
      "componentType": 5126,
      "count": 986,
      "max": [
        1.1914900541305542,
        -5.6685800552368164,
        25.22191047668457
      ],
      "min": [
        -1.1572500467300415,
        -6.5482797622680664,
        24.977380752563477
      ],
      "type": "VEC3"
    },
    {
      "bufferView": 1,
      "byteOffset": 3829416,
      "componentType": 5126,
      "count": 986,
      "max": [
        0.99028337001800537,
        -0.0054301396012306213,
        0.89528483152389526
      ],
      "min": [
        -0.99028337001800537,
        -0.39425155520439148,
        -0.15287293493747711
      ],
      "type": "VEC3"
    },
    {
      "bufferView": 0,
      "byteOffset": 3553344,
      "componentType": 5125,
      "count": 5424,
      "max": [
        985
      ],
      "min": [
        0
      ],
      "type": "SCALAR"
    },
    {
      "bufferView": 1,
      "byteOffset": 3841248,
      "componentType": 5126,
      "count": 352,
      "max": [
        1.2330000400543213,
        -5.5215902328491211,
        25.219009399414062
      ],
      "min": [
        -1.2199100255966187,
        -6.6846098899841309,
        25.002349853515625
      ],
      "type": "VEC3"
    },
    {
      "bufferView": 1,
      "byteOffset": 3845472,
      "componentType": 5126,
      "count": 352,
      "max": [
        0.94746601581573486,
        0.0052501768805086613,
        0.86941158771514893
      ],
      "min": [
        -0.94585758447647095,
        -0.67743909358978271,
        0.18851330876350403
      ],
      "type": "VEC3"
    },
    {
      "bufferView": 0,
      "byteOffset": 3575040,
      "componentType": 5125,
      "count": 1680,
      "max": [
        351
      ],
      "min": [
        0
      ],
      "type": "SCALAR"
    },
    {
      "bufferView": 1,
      "byteOffset": 3849696,
      "componentType": 5126,
      "count": 11012,
      "max": [
        2.3603301048278809,
        15.325639724731445,
        1.115839958190918
      ],
      "min": [
        -2.3603301048278809,
        -2.0091099739074707,
        0.059119999408721924
      ],
      "type": "VEC3"
    },
    {
      "bufferView": 1,
      "byteOffset": 3981840,
      "componentType": 5126,
      "count": 11012,
      "max": [
        0.99998337030410767,
        0.99999135732650757,
        0.97070962190628052
      ],
      "min": [
        -0.99998301267623901,
        -0.99941122531890869,
        -0.99999755620956421
      ],
      "type": "VEC3"
    },
    {
      "bufferView": 0,
      "byteOffset": 3581760,
      "componentType": 5125,
      "count": 64512,
      "max": [
        11011
      ],
      "min": [
        0
      ],
      "type": "SCALAR"
    }
  ],
  "asset": {
    "extras": {
      "author": "JasmineFS (https://sketchfab.com/acestudent13)",
      "license": "CC-BY-4.0 (http://creativecommons.org/licenses/by/4.0/)",
      "source": "https://sketchfab.com/models/e7c613a89e5944539139b1333021330e",
      "title": "Camel"
    },
    "generator": "Sketchfab-3.34.8",
    "version": "2.0"
  },
  "bufferViews": [
    {
      "buffer": 0,
      "byteLength": 3839808,
      "byteOffset": 0,
      "name": "floatBufferViews",
      "target": 34963
    },
    {
      "buffer": 0,
      "byteLength": 4113984,
      "byteOffset": 3839808,
      "byteStride": 12,
      "name": "floatBufferViews",
      "target": 34962
    }
  ],
  "buffers": [
    {
      "byteLength": 7953792,
      "uri": "scene.bin"
    }
  ],
  "materials": [
    {
      "doubleSided": true,
      "emissiveFactor": [
        0,
        0,
        0
      ],
      "name": "Material",
      "pbrMetallicRoughness": {
        "baseColorFactor": [
          0.80000007149999997,
          0.48327323789999999,
          0.115413636,
          1
        ],
        "metallicFactor": 0,
        "roughnessFactor": 0.59999999999999998
      }
    },
    {
      "doubleSided": true,
      "emissiveFactor": [
        0,
        0,
        0
      ],
      "name": "Material.001",
      "pbrMetallicRoughness": {
        "baseColorFactor": [
          0,
          0,
          0,
          1
        ],
        "metallicFactor": 0,
        "roughnessFactor": 0.59999999999999998
      }
    },
    {
      "doubleSided": true,
      "emissiveFactor": [
        0,
        0,
        0
      ],
      "name": "Material.002",
      "pbrMetallicRoughness": {
        "baseColorFactor": [
          1,
          1,
          1,
          1
        ],
        "metallicFactor": 0,
        "roughnessFactor": 0.59999999999999998
      }
    },
    {
      "doubleSided": true,
      "emissiveFactor": [
        0,
        0,
        0
      ],
      "name": "Material.003",
      "pbrMetallicRoughness": {
        "baseColorFactor": [
          0.18446783720000001,
          0.088468715500000003,
          0.041258390999999998,
          1
        ],
        "metallicFactor": 0,
        "roughnessFactor": 0.59999999999999998
      }
    }
  ],
  "meshes": [
    {
      "name": "Cylinder_0",
      "primitives": [
        {
          "attributes": {
            "NORMAL": 1,
            "POSITION": 0
          },
          "indices": 2,
          "material": 0,
          "mode": 4
        }
      ]
    },
    {
      "name": "Cylinder_0",
      "primitives": [
        {
          "attributes": {
            "NORMAL": 4,
            "POSITION": 3
          },
          "indices": 5,
          "material": 0,
          "mode": 4
        }
      ]
    },
    {
      "name": "Cylinder_0",
      "primitives": [
        {
          "attributes": {
            "NORMAL": 7,
            "POSITION": 6
          },
          "indices": 8,
          "material": 0,
          "mode": 4
        }
      ]
    },
    {
      "name": "Cylinder_1",
      "primitives": [
        {
          "attributes": {
            "NORMAL": 10,
            "POSITION": 9
          },
          "indices": 11,
          "material": 1,
          "mode": 4
        }
      ]
    },
    {
      "name": "Cylinder_2",
      "primitives": [
        {
          "attributes": {
            "NORMAL": 13,
            "POSITION": 12
          },
          "indices": 14,
          "material": 2,
          "mode": 4
        }
      ]
    },
    {
      "name": "Cylinder_3",
      "primitives": [
        {
          "attributes": {
            "NORMAL": 16,
            "POSITION": 15
          },
          "indices": 17,
          "material": 3,
          "mode": 4
        }
      ]
    }
  ],
  "nodes": [
    {
      "children": [
        1
      ],
      "name": "RootNode (gltf orientation matrix)",
      "rotation": [
        -0.70710678118654746,
        -0,
        -0,
        0.70710678118654757
      ]
    },
    {
      "children": [
        2
      ],
      "name": "RootNode (model correction matrix)"
    },
    {
      "children": [
        3,
        5,
        12,
        14
      ],
      "name": "Root"
    },
    {
      "children": [
        4
      ],
      "matrix": [
        -0.29086000000000006,
        0.95517000000000007,
        -0.05519000000000001,
        0,
        -0.77110000000000001,
        -0.19988000000000003,
        0.60452000000000006,
        0,
        0.56639000000000006,
        0.21839000000000003,
        0.7946700000000001,
        0,
        5.0257199999999997,
        0.79581000000000002,
        3.6994399999999996,
        1
      ],
      "name": "Lamp"
    },
    {
      "name": "Lamp"
    },
    {
      "children": [
        6,
        7,
        8,
        9,
        10,
        11
      ],
      "matrix": [
        0.14784000000000003,
        0,
        0,
        0,
        -0,
        0.14784000000000003,
        0,
        0,
        0,
        0,
        0.14784000000000003,
        0,
        0,
        0,
        0,
        1
      ],
      "name": "Cylinder"
    },
    {
      "mesh": 0,
      "name": "Cylinder_0"
    },
    {
      "mesh": 1,
      "name": "Cylinder_0"
    },
    {
      "mesh": 2,
      "name": "Cylinder_0"
    },
    {
      "mesh": 3,
      "name": "Cylinder_1"
    },
    {
      "mesh": 4,
      "name": "Cylinder_2"
    },
    {
      "mesh": 5,
      "name": "Cylinder_3"
    },
    {
      "children": [
        13
      ],
      "matrix": [
        -0.29086000000000006,
        0.95517000000000007,
        -0.05519000000000001,
        0,
        -0.77110000000000001,
        -0.19988000000000003,
        0.60452000000000006,
        0,
        0.56639000000000006,
        0.21839000000000003,
        0.7946700000000001,
        0,
        -5.9076500000000003,
        0.76156000000000001,
        3.7737700000000003,
        1
      ],
      "name": "Lamp.001"
    },
    {
      "name": "Lamp.001"
    },
    {
      "children": [
        15
      ],
      "matrix": [
        -0.29086000000000006,
        0.95517000000000007,
        -0.05519000000000001,
        0,
        -0.77110000000000001,
        -0.19988000000000003,
        0.60452000000000006,
        0,
        0.56639000000000006,
        0.21839000000000003,
        0.7946700000000001,
        0,
        0.0097900000000000036,
        0.35804000000000002,
        7.4350500000000004,
        1
      ],
      "name": "Lamp.002"
    },
    {
      "name": "Lamp.002"
    }
  ],
  "scene": 0,
  "scenes": [
    {
      "name": "OSG_Scene",
      "nodes": [
        0
      ]
    }
  ]
}

